<mxfile host="app.diagrams.net" modified="2023-10-18T03:42:01.852Z" agent="Mozilla/5.0 (Windows NT 10.0; Win64; x64) AppleWebKit/537.36 (KHTML, like Gecko) Chrome/116.0.0.0 Safari/537.36 OPR/102.0.0.0" etag="MYisM7gA1jUXmGC3DbmX" version="22.0.4" type="github">
  <diagram id="C5RBs43oDa-KdzZeNtuy" name="Page-1">
    <mxGraphModel dx="2860" dy="2335" grid="1" gridSize="10" guides="1" tooltips="1" connect="1" arrows="1" fold="1" page="1" pageScale="1" pageWidth="827" pageHeight="1169" math="0" shadow="0">
      <root>
        <mxCell id="WIyWlLk6GJQsqaUBKTNV-0" />
        <mxCell id="WIyWlLk6GJQsqaUBKTNV-1" parent="WIyWlLk6GJQsqaUBKTNV-0" />
        <mxCell id="PrvRkz_TOc2St610Ay0l-1" value="Equipe" style="rounded=0;whiteSpace=wrap;html=1;" parent="WIyWlLk6GJQsqaUBKTNV-1" vertex="1">
          <mxGeometry x="90" y="160" width="120" height="40" as="geometry" />
        </mxCell>
        <mxCell id="PrvRkz_TOc2St610Ay0l-5" value="" style="endArrow=none;html=1;rounded=0;entryX=1;entryY=1;entryDx=0;entryDy=0;exitX=0;exitY=0.5;exitDx=0;exitDy=0;" parent="WIyWlLk6GJQsqaUBKTNV-1" source="fVXsZCScKOvvf57o9i3i-1" target="PrvRkz_TOc2St610Ay0l-1" edge="1">
          <mxGeometry width="50" height="50" relative="1" as="geometry">
            <mxPoint x="223.18072875253802" y="293.2842712474619" as="sourcePoint" />
            <mxPoint x="250" y="140" as="targetPoint" />
          </mxGeometry>
        </mxCell>
        <mxCell id="PrvRkz_TOc2St610Ay0l-13" value="" style="endArrow=none;html=1;rounded=0;exitX=0.592;exitY=-0.025;exitDx=0;exitDy=0;exitPerimeter=0;" parent="WIyWlLk6GJQsqaUBKTNV-1" source="PrvRkz_TOc2St610Ay0l-1" edge="1">
          <mxGeometry width="50" height="50" relative="1" as="geometry">
            <mxPoint x="390" y="260" as="sourcePoint" />
            <mxPoint x="190" y="110" as="targetPoint" />
            <Array as="points">
              <mxPoint x="190" y="110" />
            </Array>
          </mxGeometry>
        </mxCell>
        <mxCell id="PrvRkz_TOc2St610Ay0l-14" value="R.O anteriores" style="ellipse;whiteSpace=wrap;html=1;" parent="WIyWlLk6GJQsqaUBKTNV-1" vertex="1">
          <mxGeometry x="178.88" y="80" width="70" height="40" as="geometry" />
        </mxCell>
        <mxCell id="PrvRkz_TOc2St610Ay0l-15" value="" style="endArrow=none;html=1;rounded=0;exitX=1;exitY=0;exitDx=0;exitDy=0;entryX=0.5;entryY=1;entryDx=0;entryDy=0;" parent="WIyWlLk6GJQsqaUBKTNV-1" source="PrvRkz_TOc2St610Ay0l-1" target="PrvRkz_TOc2St610Ay0l-16" edge="1">
          <mxGeometry width="50" height="50" relative="1" as="geometry">
            <mxPoint x="390" y="260" as="sourcePoint" />
            <mxPoint x="310" y="140" as="targetPoint" />
            <Array as="points">
              <mxPoint x="260" y="150" />
            </Array>
          </mxGeometry>
        </mxCell>
        <mxCell id="PrvRkz_TOc2St610Ay0l-16" value="interdição" style="ellipse;whiteSpace=wrap;html=1;" parent="WIyWlLk6GJQsqaUBKTNV-1" vertex="1">
          <mxGeometry x="207.5" y="-10" width="70" height="40" as="geometry" />
        </mxCell>
        <mxCell id="PrvRkz_TOc2St610Ay0l-18" value="" style="endArrow=none;html=1;rounded=0;exitX=0;exitY=0;exitDx=0;exitDy=0;" parent="WIyWlLk6GJQsqaUBKTNV-1" source="PrvRkz_TOc2St610Ay0l-1" edge="1">
          <mxGeometry width="50" height="50" relative="1" as="geometry">
            <mxPoint x="390" y="260" as="sourcePoint" />
            <mxPoint x="90" y="110" as="targetPoint" />
          </mxGeometry>
        </mxCell>
        <mxCell id="PrvRkz_TOc2St610Ay0l-19" value="pessoas envolvidas" style="ellipse;whiteSpace=wrap;html=1;" parent="WIyWlLk6GJQsqaUBKTNV-1" vertex="1">
          <mxGeometry x="60" y="80" width="70" height="40" as="geometry" />
        </mxCell>
        <mxCell id="PrvRkz_TOc2St610Ay0l-20" value="" style="endArrow=none;html=1;rounded=0;exitX=0;exitY=0.5;exitDx=0;exitDy=0;" parent="WIyWlLk6GJQsqaUBKTNV-1" source="PrvRkz_TOc2St610Ay0l-1" edge="1">
          <mxGeometry width="50" height="50" relative="1" as="geometry">
            <mxPoint x="390" y="260" as="sourcePoint" />
            <mxPoint x="50" y="180" as="targetPoint" />
          </mxGeometry>
        </mxCell>
        <mxCell id="PrvRkz_TOc2St610Ay0l-21" value="obs" style="ellipse;whiteSpace=wrap;html=1;" parent="WIyWlLk6GJQsqaUBKTNV-1" vertex="1">
          <mxGeometry x="-10" y="160" width="70" height="40" as="geometry" />
        </mxCell>
        <mxCell id="PrvRkz_TOc2St610Ay0l-24" value="" style="endArrow=none;html=1;rounded=0;entryX=0;entryY=1;entryDx=0;entryDy=0;" parent="WIyWlLk6GJQsqaUBKTNV-1" target="PrvRkz_TOc2St610Ay0l-1" edge="1">
          <mxGeometry width="50" height="50" relative="1" as="geometry">
            <mxPoint x="90" y="260" as="sourcePoint" />
            <mxPoint x="440" y="210" as="targetPoint" />
          </mxGeometry>
        </mxCell>
        <mxCell id="PrvRkz_TOc2St610Ay0l-28" value="Morador" style="rounded=0;whiteSpace=wrap;html=1;" parent="WIyWlLk6GJQsqaUBKTNV-1" vertex="1">
          <mxGeometry x="766" y="195" width="120" height="40" as="geometry" />
        </mxCell>
        <mxCell id="PrvRkz_TOc2St610Ay0l-29" value="" style="endArrow=none;html=1;rounded=0;exitX=0.5;exitY=0;exitDx=0;exitDy=0;entryX=0.5;entryY=1;entryDx=0;entryDy=0;" parent="WIyWlLk6GJQsqaUBKTNV-1" source="PrvRkz_TOc2St610Ay0l-28" target="NeO4dmOVWxTtskisOT3O-9" edge="1">
          <mxGeometry width="50" height="50" relative="1" as="geometry">
            <mxPoint x="826" y="165" as="sourcePoint" />
            <mxPoint x="826" y="125" as="targetPoint" />
          </mxGeometry>
        </mxCell>
        <mxCell id="uyjfCOBZuGkscZn23ESY-0" value="Nome" style="ellipse;whiteSpace=wrap;html=1;" parent="WIyWlLk6GJQsqaUBKTNV-1" vertex="1">
          <mxGeometry x="850" y="-15" width="56" height="35" as="geometry" />
        </mxCell>
        <mxCell id="uyjfCOBZuGkscZn23ESY-1" value="identificação" style="ellipse;whiteSpace=wrap;html=1;" parent="WIyWlLk6GJQsqaUBKTNV-1" vertex="1">
          <mxGeometry x="856" y="55" width="70" height="40" as="geometry" />
        </mxCell>
        <mxCell id="uyjfCOBZuGkscZn23ESY-2" value="" style="endArrow=none;html=1;rounded=0;entryX=1;entryY=0;entryDx=0;entryDy=0;exitX=0.5;exitY=1;exitDx=0;exitDy=0;" parent="WIyWlLk6GJQsqaUBKTNV-1" source="uyjfCOBZuGkscZn23ESY-1" target="PrvRkz_TOc2St610Ay0l-28" edge="1">
          <mxGeometry width="50" height="50" relative="1" as="geometry">
            <mxPoint x="886" y="95" as="sourcePoint" />
            <mxPoint x="886" y="175" as="targetPoint" />
          </mxGeometry>
        </mxCell>
        <mxCell id="uyjfCOBZuGkscZn23ESY-3" value="" style="endArrow=none;html=1;rounded=0;exitX=1;exitY=0.25;exitDx=0;exitDy=0;entryX=0;entryY=0.5;entryDx=0;entryDy=0;" parent="WIyWlLk6GJQsqaUBKTNV-1" source="PrvRkz_TOc2St610Ay0l-28" target="NeO4dmOVWxTtskisOT3O-18" edge="1">
          <mxGeometry width="50" height="50" relative="1" as="geometry">
            <mxPoint x="916" y="205" as="sourcePoint" />
            <mxPoint x="966" y="205" as="targetPoint" />
          </mxGeometry>
        </mxCell>
        <mxCell id="uyjfCOBZuGkscZn23ESY-16" value="" style="verticalLabelPosition=bottom;verticalAlign=top;html=1;shape=mxgraph.flowchart.on-page_reference;" parent="WIyWlLk6GJQsqaUBKTNV-1" vertex="1">
          <mxGeometry x="352.5" y="430" width="45" height="40" as="geometry" />
        </mxCell>
        <mxCell id="uyjfCOBZuGkscZn23ESY-18" value="" style="endArrow=none;html=1;rounded=0;exitX=0.5;exitY=1;exitDx=0;exitDy=0;exitPerimeter=0;" parent="WIyWlLk6GJQsqaUBKTNV-1" source="uyjfCOBZuGkscZn23ESY-16" edge="1">
          <mxGeometry width="50" height="50" relative="1" as="geometry">
            <mxPoint x="430" y="510" as="sourcePoint" />
            <mxPoint x="320" y="530" as="targetPoint" />
          </mxGeometry>
        </mxCell>
        <mxCell id="uyjfCOBZuGkscZn23ESY-19" value="" style="endArrow=none;html=1;rounded=0;entryX=0.5;entryY=1;entryDx=0;entryDy=0;entryPerimeter=0;" parent="WIyWlLk6GJQsqaUBKTNV-1" target="uyjfCOBZuGkscZn23ESY-16" edge="1">
          <mxGeometry width="50" height="50" relative="1" as="geometry">
            <mxPoint x="430" y="530" as="sourcePoint" />
            <mxPoint x="480" y="460" as="targetPoint" />
          </mxGeometry>
        </mxCell>
        <mxCell id="uyjfCOBZuGkscZn23ESY-20" value="" style="endArrow=none;html=1;rounded=0;" parent="WIyWlLk6GJQsqaUBKTNV-1" edge="1">
          <mxGeometry width="50" height="50" relative="1" as="geometry">
            <mxPoint x="390" y="510" as="sourcePoint" />
            <mxPoint x="420" y="490" as="targetPoint" />
          </mxGeometry>
        </mxCell>
        <mxCell id="uyjfCOBZuGkscZn23ESY-21" value="" style="endArrow=none;html=1;rounded=0;" parent="WIyWlLk6GJQsqaUBKTNV-1" edge="1">
          <mxGeometry width="50" height="50" relative="1" as="geometry">
            <mxPoint x="360" y="510" as="sourcePoint" />
            <mxPoint x="330" y="490" as="targetPoint" />
          </mxGeometry>
        </mxCell>
        <mxCell id="uyjfCOBZuGkscZn23ESY-25" value="" style="endArrow=none;html=1;rounded=0;exitX=1;exitY=0.5;exitDx=0;exitDy=0;entryX=0;entryY=0.5;entryDx=0;entryDy=0;" parent="WIyWlLk6GJQsqaUBKTNV-1" source="fVXsZCScKOvvf57o9i3i-1" edge="1">
          <mxGeometry width="50" height="50" relative="1" as="geometry">
            <mxPoint x="266.64304705816903" y="280.17804705816934" as="sourcePoint" />
            <mxPoint x="360" y="315" as="targetPoint" />
          </mxGeometry>
        </mxCell>
        <mxCell id="uyjfCOBZuGkscZn23ESY-26" value="" style="endArrow=none;html=1;rounded=0;exitX=0;exitY=1;exitDx=0;exitDy=0;" parent="WIyWlLk6GJQsqaUBKTNV-1" target="uyjfCOBZuGkscZn23ESY-27" edge="1">
          <mxGeometry width="50" height="50" relative="1" as="geometry">
            <mxPoint x="360" y="350" as="sourcePoint" />
            <mxPoint x="300" y="370" as="targetPoint" />
          </mxGeometry>
        </mxCell>
        <mxCell id="uyjfCOBZuGkscZn23ESY-27" value="Tipo de ocorrência" style="ellipse;whiteSpace=wrap;html=1;" parent="WIyWlLk6GJQsqaUBKTNV-1" vertex="1">
          <mxGeometry x="240" y="380" width="70" height="40" as="geometry" />
        </mxCell>
        <mxCell id="MZsd6Ya7zDLGfJmb7HzW-5" value="S" style="text;html=1;strokeColor=none;fillColor=none;align=center;verticalAlign=middle;whiteSpace=wrap;rounded=0;" parent="WIyWlLk6GJQsqaUBKTNV-1" vertex="1">
          <mxGeometry x="345" y="435" width="60" height="30" as="geometry" />
        </mxCell>
        <mxCell id="MZsd6Ya7zDLGfJmb7HzW-6" value="Risco de ocorrer" style="ellipse;whiteSpace=wrap;html=1;" parent="WIyWlLk6GJQsqaUBKTNV-1" vertex="1">
          <mxGeometry x="282.5" y="530" width="70" height="40" as="geometry" />
        </mxCell>
        <mxCell id="MZsd6Ya7zDLGfJmb7HzW-7" value="Fato Ocorrido" style="ellipse;whiteSpace=wrap;html=1;" parent="WIyWlLk6GJQsqaUBKTNV-1" vertex="1">
          <mxGeometry x="400" y="520" width="75" height="40" as="geometry" />
        </mxCell>
        <mxCell id="MZsd6Ya7zDLGfJmb7HzW-9" value="Data planejada do monitoramento" style="ellipse;whiteSpace=wrap;html=1;" parent="WIyWlLk6GJQsqaUBKTNV-1" vertex="1">
          <mxGeometry x="277.5" y="40" width="100" height="65.51" as="geometry" />
        </mxCell>
        <mxCell id="MZsd6Ya7zDLGfJmb7HzW-11" value="INFORMA" style="shape=rhombus;perimeter=rhombusPerimeter;whiteSpace=wrap;html=1;align=center;" parent="WIyWlLk6GJQsqaUBKTNV-1" vertex="1">
          <mxGeometry x="30" y="250" width="120" height="60" as="geometry" />
        </mxCell>
        <mxCell id="MZsd6Ya7zDLGfJmb7HzW-14" value="" style="endArrow=none;html=1;rounded=0;" parent="WIyWlLk6GJQsqaUBKTNV-1" edge="1">
          <mxGeometry width="50" height="50" relative="1" as="geometry">
            <mxPoint x="90" y="310" as="sourcePoint" />
            <mxPoint x="90" y="410" as="targetPoint" />
          </mxGeometry>
        </mxCell>
        <mxCell id="MZsd6Ya7zDLGfJmb7HzW-18" value="" style="endArrow=none;html=1;rounded=0;exitX=1;exitY=1;exitDx=0;exitDy=0;entryX=0.222;entryY=0.993;entryDx=0;entryDy=0;entryPerimeter=0;" parent="WIyWlLk6GJQsqaUBKTNV-1" source="PrvRkz_TOc2St610Ay0l-1" target="MZsd6Ya7zDLGfJmb7HzW-9" edge="1">
          <mxGeometry width="50" height="50" relative="1" as="geometry">
            <mxPoint x="510" y="370" as="sourcePoint" />
            <mxPoint x="310" y="200" as="targetPoint" />
          </mxGeometry>
        </mxCell>
        <mxCell id="MZsd6Ya7zDLGfJmb7HzW-20" value="monitoramento" style="ellipse;whiteSpace=wrap;html=1;align=center;" parent="WIyWlLk6GJQsqaUBKTNV-1" vertex="1">
          <mxGeometry x="277.5" y="-50" width="100" height="40" as="geometry" />
        </mxCell>
        <mxCell id="jK4c6H0Ts9YG_bzILDkd-0" value="N" style="text;html=1;strokeColor=none;fillColor=none;align=center;verticalAlign=middle;whiteSpace=wrap;rounded=0;" parent="WIyWlLk6GJQsqaUBKTNV-1" vertex="1">
          <mxGeometry x="490" y="290" width="60" height="30" as="geometry" />
        </mxCell>
        <mxCell id="jK4c6H0Ts9YG_bzILDkd-4" value="N" style="text;html=1;strokeColor=none;fillColor=none;align=center;verticalAlign=middle;whiteSpace=wrap;rounded=0;" parent="WIyWlLk6GJQsqaUBKTNV-1" vertex="1">
          <mxGeometry x="317.5" y="280" width="60" height="30" as="geometry" />
        </mxCell>
        <mxCell id="jK4c6H0Ts9YG_bzILDkd-5" value="1" style="text;html=1;strokeColor=none;fillColor=none;align=center;verticalAlign=middle;whiteSpace=wrap;rounded=0;" parent="WIyWlLk6GJQsqaUBKTNV-1" vertex="1">
          <mxGeometry x="170" y="190" width="60" height="30" as="geometry" />
        </mxCell>
        <mxCell id="t3xJQV-ZgWTzb67pA7qt-0" value="RO" style="ellipse;whiteSpace=wrap;html=1;align=center;fontStyle=4;" parent="WIyWlLk6GJQsqaUBKTNV-1" vertex="1">
          <mxGeometry x="413.5" y="380" width="100" height="40" as="geometry" />
        </mxCell>
        <mxCell id="t3xJQV-ZgWTzb67pA7qt-1" value="" style="endArrow=none;html=1;rounded=0;exitX=0.75;exitY=1;exitDx=0;exitDy=0;entryX=0.5;entryY=0;entryDx=0;entryDy=0;" parent="WIyWlLk6GJQsqaUBKTNV-1" target="t3xJQV-ZgWTzb67pA7qt-0" edge="1">
          <mxGeometry width="50" height="50" relative="1" as="geometry">
            <mxPoint x="472.5" y="350" as="sourcePoint" />
            <mxPoint x="630" y="420" as="targetPoint" />
          </mxGeometry>
        </mxCell>
        <mxCell id="4AvuOSr9Ut7CQzr3OK1i-1" value="" style="endArrow=none;html=1;rounded=0;entryX=1;entryY=0.5;entryDx=0;entryDy=0;exitX=0;exitY=0.5;exitDx=0;exitDy=0;" parent="WIyWlLk6GJQsqaUBKTNV-1" source="MZsd6Ya7zDLGfJmb7HzW-20" target="MZsd6Ya7zDLGfJmb7HzW-9" edge="1">
          <mxGeometry width="50" height="50" relative="1" as="geometry">
            <mxPoint x="450" y="470" as="sourcePoint" />
            <mxPoint x="500" y="420" as="targetPoint" />
          </mxGeometry>
        </mxCell>
        <mxCell id="fVXsZCScKOvvf57o9i3i-2" value="" style="endArrow=none;html=1;rounded=0;entryX=1;entryY=1;entryDx=0;entryDy=0;exitX=1;exitY=0.5;exitDx=0;exitDy=0;" parent="WIyWlLk6GJQsqaUBKTNV-1" source="fVXsZCScKOvvf57o9i3i-1" target="fVXsZCScKOvvf57o9i3i-1" edge="1">
          <mxGeometry width="50" height="50" relative="1" as="geometry">
            <mxPoint x="223.18072875253802" y="293.2842712474619" as="sourcePoint" />
            <mxPoint x="210" y="200" as="targetPoint" />
          </mxGeometry>
        </mxCell>
        <mxCell id="fVXsZCScKOvvf57o9i3i-1" value="Acidente" style="shape=rhombus;perimeter=rhombusPerimeter;whiteSpace=wrap;html=1;align=center;rotation=30;" parent="WIyWlLk6GJQsqaUBKTNV-1" vertex="1">
          <mxGeometry x="220" y="220" width="120" height="70" as="geometry" />
        </mxCell>
        <mxCell id="fVXsZCScKOvvf57o9i3i-3" value="" style="shape=link;html=1;rounded=0;exitX=0.119;exitY=0.987;exitDx=0;exitDy=0;exitPerimeter=0;entryX=0.5;entryY=0;entryDx=0;entryDy=0;entryPerimeter=0;" parent="WIyWlLk6GJQsqaUBKTNV-1" target="uyjfCOBZuGkscZn23ESY-16" edge="1">
          <mxGeometry width="100" relative="1" as="geometry">
            <mxPoint x="377.8499999999999" y="349.0899999999999" as="sourcePoint" />
            <mxPoint x="530" y="380" as="targetPoint" />
          </mxGeometry>
        </mxCell>
        <mxCell id="wc_RnZq1DOK2cN5d9Vo4-1" value="endereço" style="ellipse;whiteSpace=wrap;html=1;align=center;" parent="WIyWlLk6GJQsqaUBKTNV-1" vertex="1">
          <mxGeometry x="688" y="103.01" width="100" height="40" as="geometry" />
        </mxCell>
        <mxCell id="abQKeBMtRY9wUSzvEeuI-0" value="Risco de Vida" style="whiteSpace=wrap;html=1;align=center;" parent="WIyWlLk6GJQsqaUBKTNV-1" vertex="1">
          <mxGeometry x="352.5" y="280" width="157.5" height="70" as="geometry" />
        </mxCell>
        <mxCell id="NeO4dmOVWxTtskisOT3O-0" value="Rua" style="ellipse;whiteSpace=wrap;html=1;align=center;" parent="WIyWlLk6GJQsqaUBKTNV-1" vertex="1">
          <mxGeometry x="620" y="37.5" width="60" height="35" as="geometry" />
        </mxCell>
        <mxCell id="NeO4dmOVWxTtskisOT3O-1" value="" style="endArrow=none;html=1;rounded=0;entryX=1;entryY=1;entryDx=0;entryDy=0;exitX=0;exitY=0;exitDx=0;exitDy=0;" parent="WIyWlLk6GJQsqaUBKTNV-1" source="wc_RnZq1DOK2cN5d9Vo4-1" target="NeO4dmOVWxTtskisOT3O-0" edge="1">
          <mxGeometry relative="1" as="geometry">
            <mxPoint x="676" y="75" as="sourcePoint" />
            <mxPoint x="640" y="15" as="targetPoint" />
          </mxGeometry>
        </mxCell>
        <mxCell id="NeO4dmOVWxTtskisOT3O-2" value="Número" style="ellipse;whiteSpace=wrap;html=1;align=center;" parent="WIyWlLk6GJQsqaUBKTNV-1" vertex="1">
          <mxGeometry x="650.5" y="-12.5" width="60" height="35" as="geometry" />
        </mxCell>
        <mxCell id="NeO4dmOVWxTtskisOT3O-3" value="" style="endArrow=none;html=1;rounded=0;entryX=0.5;entryY=1;entryDx=0;entryDy=0;exitX=0.5;exitY=0;exitDx=0;exitDy=0;" parent="WIyWlLk6GJQsqaUBKTNV-1" source="wc_RnZq1DOK2cN5d9Vo4-1" target="NeO4dmOVWxTtskisOT3O-2" edge="1">
          <mxGeometry relative="1" as="geometry">
            <mxPoint x="814" y="31" as="sourcePoint" />
            <mxPoint x="946" y="55" as="targetPoint" />
          </mxGeometry>
        </mxCell>
        <mxCell id="NeO4dmOVWxTtskisOT3O-4" value="Bairro" style="ellipse;whiteSpace=wrap;html=1;align=center;" parent="WIyWlLk6GJQsqaUBKTNV-1" vertex="1">
          <mxGeometry x="686.5" y="-52.5" width="70" height="35" as="geometry" />
        </mxCell>
        <mxCell id="NeO4dmOVWxTtskisOT3O-5" value="" style="endArrow=none;html=1;rounded=0;entryX=0.5;entryY=1;entryDx=0;entryDy=0;" parent="WIyWlLk6GJQsqaUBKTNV-1" source="wc_RnZq1DOK2cN5d9Vo4-1" target="NeO4dmOVWxTtskisOT3O-4" edge="1">
          <mxGeometry relative="1" as="geometry">
            <mxPoint x="850" y="35" as="sourcePoint" />
            <mxPoint x="1056" y="45" as="targetPoint" />
          </mxGeometry>
        </mxCell>
        <mxCell id="NeO4dmOVWxTtskisOT3O-6" value="Complemento" style="ellipse;whiteSpace=wrap;html=1;align=center;" parent="WIyWlLk6GJQsqaUBKTNV-1" vertex="1">
          <mxGeometry x="730.5" y="-17.5" width="75" height="35" as="geometry" />
        </mxCell>
        <mxCell id="NeO4dmOVWxTtskisOT3O-7" value="" style="endArrow=none;html=1;rounded=0;entryX=0.315;entryY=1.024;entryDx=0;entryDy=0;entryPerimeter=0;exitX=0.705;exitY=0.125;exitDx=0;exitDy=0;exitPerimeter=0;" parent="WIyWlLk6GJQsqaUBKTNV-1" source="wc_RnZq1DOK2cN5d9Vo4-1" target="NeO4dmOVWxTtskisOT3O-6" edge="1">
          <mxGeometry relative="1" as="geometry">
            <mxPoint x="760" y="20" as="sourcePoint" />
            <mxPoint x="796" y="-5" as="targetPoint" />
          </mxGeometry>
        </mxCell>
        <mxCell id="NeO4dmOVWxTtskisOT3O-8" value="" style="endArrow=none;html=1;rounded=0;entryX=0.5;entryY=1;entryDx=0;entryDy=0;exitX=0;exitY=0;exitDx=0;exitDy=0;" parent="WIyWlLk6GJQsqaUBKTNV-1" source="PrvRkz_TOc2St610Ay0l-28" target="wc_RnZq1DOK2cN5d9Vo4-1" edge="1">
          <mxGeometry relative="1" as="geometry">
            <mxPoint x="755" y="191" as="sourcePoint" />
            <mxPoint x="737" y="85" as="targetPoint" />
          </mxGeometry>
        </mxCell>
        <mxCell id="NeO4dmOVWxTtskisOT3O-9" value="telefone" style="ellipse;shape=doubleEllipse;margin=3;whiteSpace=wrap;html=1;align=center;" parent="WIyWlLk6GJQsqaUBKTNV-1" vertex="1">
          <mxGeometry x="788" y="105.51" width="76" height="35" as="geometry" />
        </mxCell>
        <mxCell id="NeO4dmOVWxTtskisOT3O-10" value="" style="endArrow=none;html=1;rounded=0;entryX=0.273;entryY=-0.065;entryDx=0;entryDy=0;entryPerimeter=0;exitX=0.5;exitY=1;exitDx=0;exitDy=0;" parent="WIyWlLk6GJQsqaUBKTNV-1" source="uyjfCOBZuGkscZn23ESY-0" target="uyjfCOBZuGkscZn23ESY-1" edge="1">
          <mxGeometry width="50" height="50" relative="1" as="geometry">
            <mxPoint x="925" y="-15" as="sourcePoint" />
            <mxPoint x="926" y="3" as="targetPoint" />
          </mxGeometry>
        </mxCell>
        <mxCell id="NeO4dmOVWxTtskisOT3O-12" value="Sobrenome" style="ellipse;whiteSpace=wrap;html=1;" parent="WIyWlLk6GJQsqaUBKTNV-1" vertex="1">
          <mxGeometry x="906" y="-25" width="70" height="40" as="geometry" />
        </mxCell>
        <mxCell id="NeO4dmOVWxTtskisOT3O-13" value="" style="endArrow=none;html=1;rounded=0;entryX=0.714;entryY=0;entryDx=0;entryDy=0;entryPerimeter=0;exitX=0.5;exitY=1;exitDx=0;exitDy=0;" parent="WIyWlLk6GJQsqaUBKTNV-1" source="NeO4dmOVWxTtskisOT3O-12" target="uyjfCOBZuGkscZn23ESY-1" edge="1">
          <mxGeometry width="50" height="50" relative="1" as="geometry">
            <mxPoint x="1005" y="-12" as="sourcePoint" />
            <mxPoint x="1005" y="65" as="targetPoint" />
          </mxGeometry>
        </mxCell>
        <mxCell id="NeO4dmOVWxTtskisOT3O-18" value="CPF" style="ellipse;whiteSpace=wrap;html=1;align=center;fontStyle=4;" parent="WIyWlLk6GJQsqaUBKTNV-1" vertex="1">
          <mxGeometry x="966" y="155" width="50" height="30" as="geometry" />
        </mxCell>
        <mxCell id="NeO4dmOVWxTtskisOT3O-19" value="" style="endArrow=none;html=1;rounded=0;exitX=1;exitY=0.75;exitDx=0;exitDy=0;entryX=0;entryY=0.5;entryDx=0;entryDy=0;" parent="WIyWlLk6GJQsqaUBKTNV-1" source="PrvRkz_TOc2St610Ay0l-28" target="NeO4dmOVWxTtskisOT3O-20" edge="1">
          <mxGeometry width="50" height="50" relative="1" as="geometry">
            <mxPoint x="896" y="245" as="sourcePoint" />
            <mxPoint x="976" y="245" as="targetPoint" />
          </mxGeometry>
        </mxCell>
        <mxCell id="NeO4dmOVWxTtskisOT3O-20" value="RG" style="ellipse;whiteSpace=wrap;html=1;align=center;fontStyle=4;" parent="WIyWlLk6GJQsqaUBKTNV-1" vertex="1">
          <mxGeometry x="976" y="200" width="50" height="25" as="geometry" />
        </mxCell>
        <mxCell id="NeO4dmOVWxTtskisOT3O-21" value="Ocorrência" style="whiteSpace=wrap;html=1;align=center;" parent="WIyWlLk6GJQsqaUBKTNV-1" vertex="1">
          <mxGeometry x="676" y="370" width="90" height="40" as="geometry" />
        </mxCell>
        <mxCell id="NeO4dmOVWxTtskisOT3O-22" value="" style="endArrow=none;html=1;rounded=0;entryX=0.5;entryY=1;entryDx=0;entryDy=0;exitX=0.652;exitY=0.066;exitDx=0;exitDy=0;exitPerimeter=0;" parent="WIyWlLk6GJQsqaUBKTNV-1" source="NeO4dmOVWxTtskisOT3O-25" target="NeO4dmOVWxTtskisOT3O-21" edge="1">
          <mxGeometry relative="1" as="geometry">
            <mxPoint x="726" y="450" as="sourcePoint" />
            <mxPoint x="720" y="390" as="targetPoint" />
          </mxGeometry>
        </mxCell>
        <mxCell id="NeO4dmOVWxTtskisOT3O-23" value="" style="endArrow=none;html=1;rounded=0;exitX=0.354;exitY=1.068;exitDx=0;exitDy=0;exitPerimeter=0;entryX=0.329;entryY=0.019;entryDx=0;entryDy=0;entryPerimeter=0;" parent="WIyWlLk6GJQsqaUBKTNV-1" source="NeO4dmOVWxTtskisOT3O-21" target="NeO4dmOVWxTtskisOT3O-25" edge="1">
          <mxGeometry relative="1" as="geometry">
            <mxPoint x="810" y="390" as="sourcePoint" />
            <mxPoint x="701" y="450" as="targetPoint" />
          </mxGeometry>
        </mxCell>
        <mxCell id="NeO4dmOVWxTtskisOT3O-25" value="O" style="ellipse;whiteSpace=wrap;html=1;align=center;" parent="WIyWlLk6GJQsqaUBKTNV-1" vertex="1">
          <mxGeometry x="684" y="460" width="62" height="50" as="geometry" />
        </mxCell>
        <mxCell id="NeO4dmOVWxTtskisOT3O-27" value="" style="endArrow=none;html=1;rounded=0;entryX=0;entryY=1;entryDx=0;entryDy=0;exitX=0.603;exitY=0.063;exitDx=0;exitDy=0;exitPerimeter=0;" parent="WIyWlLk6GJQsqaUBKTNV-1" source="NeO4dmOVWxTtskisOT3O-29" target="NeO4dmOVWxTtskisOT3O-25" edge="1">
          <mxGeometry relative="1" as="geometry">
            <mxPoint x="670" y="590" as="sourcePoint" />
            <mxPoint x="750" y="510" as="targetPoint" />
          </mxGeometry>
        </mxCell>
        <mxCell id="NeO4dmOVWxTtskisOT3O-28" value="" style="endArrow=none;html=1;rounded=0;entryX=1;entryY=1;entryDx=0;entryDy=0;exitX=0.395;exitY=0;exitDx=0;exitDy=0;exitPerimeter=0;" parent="WIyWlLk6GJQsqaUBKTNV-1" source="NeO4dmOVWxTtskisOT3O-30" target="NeO4dmOVWxTtskisOT3O-25" edge="1">
          <mxGeometry relative="1" as="geometry">
            <mxPoint x="760" y="560" as="sourcePoint" />
            <mxPoint x="704" y="522" as="targetPoint" />
          </mxGeometry>
        </mxCell>
        <mxCell id="NeO4dmOVWxTtskisOT3O-29" value="Naturais" style="ellipse;whiteSpace=wrap;html=1;align=center;" parent="WIyWlLk6GJQsqaUBKTNV-1" vertex="1">
          <mxGeometry x="620" y="570" width="100" height="40" as="geometry" />
        </mxCell>
        <mxCell id="NeO4dmOVWxTtskisOT3O-30" value="Tecnológicos" style="ellipse;whiteSpace=wrap;html=1;align=center;" parent="WIyWlLk6GJQsqaUBKTNV-1" vertex="1">
          <mxGeometry x="730.5" y="580" width="100" height="40" as="geometry" />
        </mxCell>
        <mxCell id="NeO4dmOVWxTtskisOT3O-35" value="" style="shape=requiredInterface;html=1;verticalLabelPosition=bottom;sketch=0;rotation=95;" parent="WIyWlLk6GJQsqaUBKTNV-1" vertex="1">
          <mxGeometry x="676" y="520" width="29.66" height="40" as="geometry" />
        </mxCell>
        <mxCell id="NeO4dmOVWxTtskisOT3O-36" value="" style="shape=requiredInterface;html=1;verticalLabelPosition=bottom;sketch=0;rotation=60;" parent="WIyWlLk6GJQsqaUBKTNV-1" vertex="1">
          <mxGeometry x="736" y="510" width="30" height="40" as="geometry" />
        </mxCell>
        <mxCell id="NeO4dmOVWxTtskisOT3O-37" value="" style="endArrow=none;html=1;rounded=0;entryX=0.396;entryY=1.011;entryDx=0;entryDy=0;entryPerimeter=0;exitX=0.433;exitY=-0.005;exitDx=0;exitDy=0;exitPerimeter=0;" parent="WIyWlLk6GJQsqaUBKTNV-1" source="NeO4dmOVWxTtskisOT3O-40" target="NeO4dmOVWxTtskisOT3O-29" edge="1">
          <mxGeometry relative="1" as="geometry">
            <mxPoint x="659" y="700" as="sourcePoint" />
            <mxPoint x="680" y="620" as="targetPoint" />
          </mxGeometry>
        </mxCell>
        <mxCell id="NeO4dmOVWxTtskisOT3O-38" value="" style="endArrow=none;html=1;rounded=0;entryX=0.5;entryY=1;entryDx=0;entryDy=0;exitX=0.571;exitY=0.023;exitDx=0;exitDy=0;exitPerimeter=0;" parent="WIyWlLk6GJQsqaUBKTNV-1" source="NeO4dmOVWxTtskisOT3O-40" target="NeO4dmOVWxTtskisOT3O-29" edge="1">
          <mxGeometry relative="1" as="geometry">
            <mxPoint x="670" y="700" as="sourcePoint" />
            <mxPoint x="668" y="626" as="targetPoint" />
          </mxGeometry>
        </mxCell>
        <mxCell id="NeO4dmOVWxTtskisOT3O-40" value="O" style="ellipse;whiteSpace=wrap;html=1;align=center;" parent="WIyWlLk6GJQsqaUBKTNV-1" vertex="1">
          <mxGeometry x="630" y="710" width="70" height="50" as="geometry" />
        </mxCell>
        <mxCell id="NeO4dmOVWxTtskisOT3O-41" value="" style="endArrow=none;html=1;rounded=0;entryX=0;entryY=0.6;entryDx=0;entryDy=0;entryPerimeter=0;exitX=0.735;exitY=0.178;exitDx=0;exitDy=0;exitPerimeter=0;" parent="WIyWlLk6GJQsqaUBKTNV-1" source="NeO4dmOVWxTtskisOT3O-54" target="NeO4dmOVWxTtskisOT3O-40" edge="1">
          <mxGeometry relative="1" as="geometry">
            <mxPoint x="590" y="840" as="sourcePoint" />
            <mxPoint x="614.34" y="753" as="targetPoint" />
          </mxGeometry>
        </mxCell>
        <mxCell id="NeO4dmOVWxTtskisOT3O-42" value="" style="endArrow=none;html=1;rounded=0;entryX=0.768;entryY=0.919;entryDx=0;entryDy=0;exitX=0.429;exitY=0;exitDx=0;exitDy=0;exitPerimeter=0;entryPerimeter=0;" parent="WIyWlLk6GJQsqaUBKTNV-1" source="NeO4dmOVWxTtskisOT3O-56" target="NeO4dmOVWxTtskisOT3O-40" edge="1">
          <mxGeometry relative="1" as="geometry">
            <mxPoint x="720" y="837" as="sourcePoint" />
            <mxPoint x="687" y="760" as="targetPoint" />
          </mxGeometry>
        </mxCell>
        <mxCell id="NeO4dmOVWxTtskisOT3O-43" value="" style="shape=requiredInterface;html=1;verticalLabelPosition=bottom;sketch=0;rotation=105;" parent="WIyWlLk6GJQsqaUBKTNV-1" vertex="1">
          <mxGeometry x="598.21" y="771.21" width="30" height="16.19" as="geometry" />
        </mxCell>
        <mxCell id="NeO4dmOVWxTtskisOT3O-44" value="" style="shape=requiredInterface;html=1;verticalLabelPosition=bottom;sketch=0;rotation=60;" parent="WIyWlLk6GJQsqaUBKTNV-1" vertex="1">
          <mxGeometry x="682.25" y="770.12" width="30" height="21.77" as="geometry" />
        </mxCell>
        <mxCell id="NeO4dmOVWxTtskisOT3O-45" value="" style="endArrow=none;html=1;rounded=0;entryX=0.325;entryY=0.974;entryDx=0;entryDy=0;entryPerimeter=0;exitX=0.5;exitY=0;exitDx=0;exitDy=0;" parent="WIyWlLk6GJQsqaUBKTNV-1" source="NeO4dmOVWxTtskisOT3O-55" target="NeO4dmOVWxTtskisOT3O-40" edge="1">
          <mxGeometry relative="1" as="geometry">
            <mxPoint x="650" y="840" as="sourcePoint" />
            <mxPoint x="655" y="762" as="targetPoint" />
          </mxGeometry>
        </mxCell>
        <mxCell id="NeO4dmOVWxTtskisOT3O-46" value="" style="shape=requiredInterface;html=1;verticalLabelPosition=bottom;sketch=0;rotation=95;" parent="WIyWlLk6GJQsqaUBKTNV-1" vertex="1">
          <mxGeometry x="636.42" y="774.82" width="36" height="21.89" as="geometry" />
        </mxCell>
        <mxCell id="NeO4dmOVWxTtskisOT3O-51" value="" style="endArrow=none;html=1;rounded=0;entryX=0.935;entryY=0.754;entryDx=0;entryDy=0;entryPerimeter=0;exitX=0;exitY=0;exitDx=0;exitDy=0;" parent="WIyWlLk6GJQsqaUBKTNV-1" source="NeO4dmOVWxTtskisOT3O-57" target="NeO4dmOVWxTtskisOT3O-40" edge="1">
          <mxGeometry relative="1" as="geometry">
            <mxPoint x="760" y="810" as="sourcePoint" />
            <mxPoint x="746" y="739.5" as="targetPoint" />
          </mxGeometry>
        </mxCell>
        <mxCell id="NeO4dmOVWxTtskisOT3O-52" value="" style="shape=requiredInterface;html=1;verticalLabelPosition=bottom;sketch=0;rotation=45;" parent="WIyWlLk6GJQsqaUBKTNV-1" vertex="1">
          <mxGeometry x="712.25" y="765.9399999999999" width="30" height="21.46" as="geometry" />
        </mxCell>
        <mxCell id="NeO4dmOVWxTtskisOT3O-54" value="Geológico" style="ellipse;whiteSpace=wrap;html=1;align=center;" parent="WIyWlLk6GJQsqaUBKTNV-1" vertex="1">
          <mxGeometry x="538.5" y="840" width="70" height="20" as="geometry" />
        </mxCell>
        <mxCell id="NeO4dmOVWxTtskisOT3O-55" value="Hidrológico" style="ellipse;whiteSpace=wrap;html=1;align=center;" parent="WIyWlLk6GJQsqaUBKTNV-1" vertex="1">
          <mxGeometry x="608.5" y="850" width="78" height="20" as="geometry" />
        </mxCell>
        <mxCell id="NeO4dmOVWxTtskisOT3O-56" value="Meteorológico" style="ellipse;whiteSpace=wrap;html=1;align=center;" parent="WIyWlLk6GJQsqaUBKTNV-1" vertex="1">
          <mxGeometry x="686.5" y="840" width="78" height="30" as="geometry" />
        </mxCell>
        <mxCell id="NeO4dmOVWxTtskisOT3O-57" value="Climatológico" style="ellipse;whiteSpace=wrap;html=1;align=center;rotation=0;" parent="WIyWlLk6GJQsqaUBKTNV-1" vertex="1">
          <mxGeometry x="756.5" y="813.02" width="76" height="20.16" as="geometry" />
        </mxCell>
        <mxCell id="NeO4dmOVWxTtskisOT3O-58" value="" style="endArrow=none;html=1;rounded=0;entryX=1;entryY=0.5;entryDx=0;entryDy=0;exitX=0;exitY=0;exitDx=0;exitDy=0;" parent="WIyWlLk6GJQsqaUBKTNV-1" source="NeO4dmOVWxTtskisOT3O-60" target="NeO4dmOVWxTtskisOT3O-40" edge="1">
          <mxGeometry relative="1" as="geometry">
            <mxPoint x="791.5" y="782" as="sourcePoint" />
            <mxPoint x="706.4999999999923" y="735" as="targetPoint" />
          </mxGeometry>
        </mxCell>
        <mxCell id="NeO4dmOVWxTtskisOT3O-59" value="" style="shape=requiredInterface;html=1;verticalLabelPosition=bottom;sketch=0;rotation=30;" parent="WIyWlLk6GJQsqaUBKTNV-1" vertex="1">
          <mxGeometry x="742.25" y="753.3599999999999" width="30" height="21.46" as="geometry" />
        </mxCell>
        <mxCell id="NeO4dmOVWxTtskisOT3O-60" value="Biológico" style="ellipse;whiteSpace=wrap;html=1;align=center;rotation=0;" parent="WIyWlLk6GJQsqaUBKTNV-1" vertex="1">
          <mxGeometry x="788" y="785.02" width="76" height="20.16" as="geometry" />
        </mxCell>
        <mxCell id="aP32QTiw4f4GaVCN3dbB-0" value="Ofício" style="whiteSpace=wrap;html=1;align=center;" vertex="1" parent="WIyWlLk6GJQsqaUBKTNV-1">
          <mxGeometry x="20" y="400" width="140" height="70" as="geometry" />
        </mxCell>
        <mxCell id="aP32QTiw4f4GaVCN3dbB-3" value="" style="endArrow=none;html=1;rounded=0;exitX=0.057;exitY=1.043;exitDx=0;exitDy=0;exitPerimeter=0;" edge="1" parent="WIyWlLk6GJQsqaUBKTNV-1" source="aP32QTiw4f4GaVCN3dbB-0" target="aP32QTiw4f4GaVCN3dbB-4">
          <mxGeometry width="50" height="50" relative="1" as="geometry">
            <mxPoint x="480" y="410" as="sourcePoint" />
            <mxPoint y="550" as="targetPoint" />
          </mxGeometry>
        </mxCell>
        <mxCell id="aP32QTiw4f4GaVCN3dbB-4" value="Órgão de desitno de ofício" style="ellipse;whiteSpace=wrap;html=1;align=center;" vertex="1" parent="WIyWlLk6GJQsqaUBKTNV-1">
          <mxGeometry x="-50" y="530" width="110" height="60" as="geometry" />
        </mxCell>
        <mxCell id="aP32QTiw4f4GaVCN3dbB-5" value="" style="endArrow=none;html=1;rounded=0;exitX=1;exitY=1;exitDx=0;exitDy=0;" edge="1" parent="WIyWlLk6GJQsqaUBKTNV-1" source="aP32QTiw4f4GaVCN3dbB-0">
          <mxGeometry width="50" height="50" relative="1" as="geometry">
            <mxPoint x="690" y="370" as="sourcePoint" />
            <mxPoint x="160" y="540" as="targetPoint" />
          </mxGeometry>
        </mxCell>
        <mxCell id="aP32QTiw4f4GaVCN3dbB-6" value="Número oficio encaminhado" style="ellipse;whiteSpace=wrap;html=1;align=center;" vertex="1" parent="WIyWlLk6GJQsqaUBKTNV-1">
          <mxGeometry x="100" y="530" width="120" height="50" as="geometry" />
        </mxCell>
        <mxCell id="aP32QTiw4f4GaVCN3dbB-7" value="" style="endArrow=none;html=1;rounded=0;" edge="1" parent="WIyWlLk6GJQsqaUBKTNV-1">
          <mxGeometry width="50" height="50" relative="1" as="geometry">
            <mxPoint x="760" y="290" as="sourcePoint" />
            <mxPoint x="790" y="240" as="targetPoint" />
          </mxGeometry>
        </mxCell>
        <mxCell id="aP32QTiw4f4GaVCN3dbB-8" value="Registra" style="shape=rhombus;perimeter=rhombusPerimeter;whiteSpace=wrap;html=1;align=center;" vertex="1" parent="WIyWlLk6GJQsqaUBKTNV-1">
          <mxGeometry x="700" y="285" width="120" height="45" as="geometry" />
        </mxCell>
        <mxCell id="aP32QTiw4f4GaVCN3dbB-9" value="" style="endArrow=none;html=1;rounded=0;entryX=0.5;entryY=1;entryDx=0;entryDy=0;exitX=0.5;exitY=0;exitDx=0;exitDy=0;" edge="1" parent="WIyWlLk6GJQsqaUBKTNV-1" source="NeO4dmOVWxTtskisOT3O-21" target="aP32QTiw4f4GaVCN3dbB-8">
          <mxGeometry width="50" height="50" relative="1" as="geometry">
            <mxPoint x="690" y="370" as="sourcePoint" />
            <mxPoint x="740" y="320" as="targetPoint" />
          </mxGeometry>
        </mxCell>
        <mxCell id="aP32QTiw4f4GaVCN3dbB-10" value="Localização" style="whiteSpace=wrap;html=1;align=center;" vertex="1" parent="WIyWlLk6GJQsqaUBKTNV-1">
          <mxGeometry x="1010" y="350" width="180" height="80" as="geometry" />
        </mxCell>
        <mxCell id="aP32QTiw4f4GaVCN3dbB-11" value="" style="endArrow=none;html=1;rounded=0;exitX=0.217;exitY=1.025;exitDx=0;exitDy=0;exitPerimeter=0;entryX=0.5;entryY=0;entryDx=0;entryDy=0;" edge="1" parent="WIyWlLk6GJQsqaUBKTNV-1" source="aP32QTiw4f4GaVCN3dbB-10" target="aP32QTiw4f4GaVCN3dbB-12">
          <mxGeometry width="50" height="50" relative="1" as="geometry">
            <mxPoint x="690" y="370" as="sourcePoint" />
            <mxPoint x="1049" y="500" as="targetPoint" />
          </mxGeometry>
        </mxCell>
        <mxCell id="aP32QTiw4f4GaVCN3dbB-12" value="Latitude" style="ellipse;whiteSpace=wrap;html=1;align=center;" vertex="1" parent="WIyWlLk6GJQsqaUBKTNV-1">
          <mxGeometry x="990" y="520" width="110" height="60" as="geometry" />
        </mxCell>
        <mxCell id="aP32QTiw4f4GaVCN3dbB-15" value="Longitude" style="ellipse;whiteSpace=wrap;html=1;align=center;" vertex="1" parent="WIyWlLk6GJQsqaUBKTNV-1">
          <mxGeometry x="1130" y="520" width="130" height="70" as="geometry" />
        </mxCell>
        <mxCell id="aP32QTiw4f4GaVCN3dbB-16" value="" style="endArrow=none;html=1;rounded=0;entryX=0.75;entryY=1;entryDx=0;entryDy=0;exitX=0.5;exitY=0;exitDx=0;exitDy=0;" edge="1" parent="WIyWlLk6GJQsqaUBKTNV-1" source="aP32QTiw4f4GaVCN3dbB-15" target="aP32QTiw4f4GaVCN3dbB-10">
          <mxGeometry width="50" height="50" relative="1" as="geometry">
            <mxPoint x="690" y="370" as="sourcePoint" />
            <mxPoint x="740" y="320" as="targetPoint" />
          </mxGeometry>
        </mxCell>
        <mxCell id="aP32QTiw4f4GaVCN3dbB-18" value="" style="endArrow=none;html=1;rounded=0;exitX=1;exitY=1;exitDx=0;exitDy=0;entryX=0;entryY=0.5;entryDx=0;entryDy=0;" edge="1" parent="WIyWlLk6GJQsqaUBKTNV-1" source="aP32QTiw4f4GaVCN3dbB-10" target="aP32QTiw4f4GaVCN3dbB-19">
          <mxGeometry width="50" height="50" relative="1" as="geometry">
            <mxPoint x="690" y="370" as="sourcePoint" />
            <mxPoint x="1320" y="410" as="targetPoint" />
          </mxGeometry>
        </mxCell>
        <mxCell id="aP32QTiw4f4GaVCN3dbB-19" value="Link&lt;br&gt;Localização" style="ellipse;whiteSpace=wrap;html=1;align=center;" vertex="1" parent="WIyWlLk6GJQsqaUBKTNV-1">
          <mxGeometry x="1310" y="390" width="150" height="70" as="geometry" />
        </mxCell>
      </root>
    </mxGraphModel>
  </diagram>
</mxfile>
